<svg xmlns="http://www.w3.org/2000/svg" width="48" height="58" fill="none" viewBox="0 0 48 58">
  <path fill="#FEFEFE" d="M47.4.3H.3v47.1h47.1z"/>
  <path stroke="#000" stroke-miterlimit="22.9" stroke-width=".6" d="M47.4.3H.3v47.1h47.1z"/>
  <path fill="#57585A" d="M47.4 47.4H.3v10.4h47.1z"/>
  <path fill="#000" fill-rule="evenodd" d="m9.4 6.1-.8.4c-.9.4-1.1-2-2.8.9.3.5.6.7.9 1.2 0 .3-.3 1.2-.5 1.4-.6.3-1.3.2-1.4.7 0 .2 0 1.4.2 1.6.3.6 1.4 0 1.8.7.9 1.9 0 .9-.2 2.4.2.2 1.1 1 1.2 1.1.6.3.9-.5 1.4-.8.3-.1 1.4.4 1.4.4.3.6.2 1.3.7 1.4.1 0 1.5 0 1.6-.1.4-.2.3-.4.3-.8v-.9c1.9-.9.9-.7 2.2 0 .5.2.6 0 1-.4 1-1.1.9-.8-.2-2.1 0-.1.3-1.2.4-1.3.2-.4.9-.3 1.5-.6v-.9c-.2-2.3-1.4-.7-1.9-1.5l-.4-.9c-.2-.5.7-1.2.5-1.7-.1-.2-1.2-1.3-1.5-1.1-.5.2-.6.6-1.1.9-.3 0-1.2-.3-1.4-.5-.3-.6-.2-1.3-.7-1.4-.2 0-1.4 0-1.6.2-.6.3.1 1.4-.7 1.8M9 12.1c-1.1-2.2 1.1-4.5 3.3-3.8 1.5.5 2.3 2.3 1.8 3.5-1 2.4-4.1 2.2-5 .3z" clip-rule="evenodd"/>
  <path fill="#000" fill-rule="evenodd" d="M18.002 12.2c-.4.2-.5.9-.5 1.1.2.5.7 0 .8.9v.5c-.5.6-.9.1-.3 1.4.3.6.8-.2 1.3.2.8.6.1.8.4 1.3.1.2.8.5 1.1.4.2-.1.3-.6.5-.7.4-.2.5 0 .9-.1.5 1 .8.7 1.4.4s-.2-.7.2-1.3c.5-.8.8-.2 1.3-.4.2-.1.5-.8.4-1.1-.1-.2-.6-.3-.7-.5-.2-.4 0-.3-.2-.8 1-.8.9-.5.2-1.8-.7.1-.8.4-1.2 0-.6-.6 0-.7-.2-1.2-.1-.2-.8-.5-1.1-.4-.2.1-.3.6-.5.7s-.7.2-.8 0c-.2 0-.5-.5-.6-.7-1.8.4-.7.9-1 1.5-.4.8-1 .3-1.3.4m4 3.4c-1.1.5-1.7.3-2.2-.8-.8-1.7 2-3.2 2.9-1.3.4.8.1 1.7-.6 2.1z" clip-rule="evenodd"/>
  <path fill="#ED1B23" fill-rule="evenodd" d="M7.902 22.1c1.3 0 2.4 1.1 2.4 2.4s-1.1 2.4-2.4 2.4-2.4-1.1-2.4-2.4 1.1-2.4 2.4-2.4" clip-rule="evenodd"/>
  <path fill="#00BDE2" fill-rule="evenodd" d="M6.102 28.5h3.5c.3 0 .6.3.6.6v12.6c0 .3-.3.6-.6.6h-3.5c-.3 0-.6-.3-.6-.6V29.1c0-.3.3-.6.6-.6m8.1-4.1h3.5c.3 0 .6.3.6.6v16.6c0 .3-.3.6-.6.6h-3.5c-.3 0-.6-.3-.6-.6V25c0-.3.3-.6.6-.6m8 2.4h3.5c.3 0 .6.3.6.6v14.3c0 .3-.3.6-.6.6h-3.5c-.3 0-.6-.3-.6-.6V27.4c0-.3.3-.6.6-.6m8.099-7.2h3.5c.3 0 .6.3.6.6v21.5c0 .3-.3.6-.6.6h-3.5c-.3 0-.6-.3-.6-.6V20.2c0-.3.3-.6.6-.6m8-7.4h3.5c.3 0 .6.3.6.6v28.9c0 .3-.3.6-.6.6h-3.5c-.3 0-.6-.3-.6-.6V12.8c0-.3.3-.6.6-.6" clip-rule="evenodd"/>
  <path fill="#ED1B23" fill-rule="evenodd" d="M15.902 18.1c1.3 0 2.4 1.1 2.4 2.4s-1.1 2.4-2.4 2.4-2.4-1.1-2.4-2.4 1.1-2.4 2.4-2.4m8.1 1.3c1.3 0 2.4 1.1 2.4 2.4s-1.1 2.4-2.4 2.4-2.4-1.1-2.4-2.4 1.1-2.4 2.4-2.4m8-6.2c1.3 0 2.4 1.1 2.4 2.4s-1.1 2.4-2.4 2.4-2.4-1.1-2.4-2.4 1.1-2.4 2.4-2.4M40.101 5c1.3 0 2.4 1.1 2.4 2.4s-1.1 2.4-2.4 2.4-2.4-1.1-2.4-2.4 1.1-2.4 2.4-2.4" clip-rule="evenodd"/>
  <path stroke="#ED1B23" stroke-miterlimit="22.9" stroke-width="2.8" d="m7.9 24.4 8.3-4.2 7.7 2.1 8.2-6.8 8.4-8.1"/>
  <path fill="#FEFEFE" d="M17.016 50.075h.913q.742 0 1.068.138.329.135.517.443.19.304.19.732 0 .474-.249.788-.246.313-.67.436-.25.071-.908.071V54.6h-.861zm.861 1.768h.274q.323 0 .449-.046a.4.4 0 0 0 .197-.15.45.45 0 0 0 .074-.259q0-.261-.203-.381-.148-.09-.548-.09h-.243zm2.732-1.768h.913q.75 0 1.068.135.32.132.513.443.194.31.194.735 0 .446-.215.748-.213.298-.643.452l1.07 2.012h-.94l-1.019-1.917h-.08V54.6h-.861zm.861 1.768h.27q.413 0 .567-.107.157-.108.157-.357a.43.43 0 0 0-.283-.412q-.13-.05-.474-.05h-.237zm3.172-1.768h.842l1.046 3.156 1.062-3.156h.83l.763 4.525h-.83l-.487-2.858-.962 2.858h-.76l-.95-2.858L24.7 54.6h-.84z"/>
</svg>
